<mxfile host="65bd71144e">
    <diagram id="5aimPDkGabP7q4kt-yr5" name="Page-1">
        <mxGraphModel dx="1072" dy="467" grid="1" gridSize="10" guides="1" tooltips="1" connect="1" arrows="1" fold="1" page="1" pageScale="1" pageWidth="850" pageHeight="1100" math="0" shadow="0">
            <root>
                <mxCell id="0"/>
                <mxCell id="1" parent="0"/>
                <mxCell id="8" value="conexion" style="swimlane;fontStyle=0;childLayout=stackLayout;horizontal=1;startSize=30;horizontalStack=0;resizeParent=1;resizeParentMax=0;resizeLast=0;collapsible=1;marginBottom=0;whiteSpace=wrap;html=1;fontFamily=Times New Roman;fontSize=10;" parent="1" vertex="1">
                    <mxGeometry x="40" y="20" width="230" height="320" as="geometry"/>
                </mxCell>
                <mxCell id="9" value="&lt;u&gt;&lt;font style=&quot;font-size: 12px;&quot;&gt;-DATABASE:String&lt;/font&gt;&lt;/u&gt;" style="text;strokeColor=none;fillColor=none;align=left;verticalAlign=middle;spacingLeft=4;spacingRight=4;overflow=hidden;points=[[0,0.5],[1,0.5]];portConstraint=eastwest;rotatable=0;whiteSpace=wrap;html=1;fontFamily=Times New Roman;fontSize=10;" parent="8" vertex="1">
                    <mxGeometry y="30" width="230" height="30" as="geometry"/>
                </mxCell>
                <mxCell id="10" value="&lt;u&gt;&lt;font style=&quot;font-size: 12px;&quot;&gt;-USERNAME:String&amp;nbsp;&lt;/font&gt;&lt;/u&gt;" style="text;strokeColor=none;fillColor=none;align=left;verticalAlign=middle;spacingLeft=4;spacingRight=4;overflow=hidden;points=[[0,0.5],[1,0.5]];portConstraint=eastwest;rotatable=0;whiteSpace=wrap;html=1;fontFamily=Times New Roman;fontSize=10;" parent="8" vertex="1">
                    <mxGeometry y="60" width="230" height="30" as="geometry"/>
                </mxCell>
                <mxCell id="13" value="&lt;u&gt;&lt;font style=&quot;font-size: 12px;&quot;&gt;-PASSWORD:String&lt;/font&gt;&lt;br&gt;&lt;/u&gt;" style="text;strokeColor=none;fillColor=none;align=left;verticalAlign=middle;spacingLeft=4;spacingRight=4;overflow=hidden;points=[[0,0.5],[1,0.5]];portConstraint=eastwest;rotatable=0;whiteSpace=wrap;html=1;fontFamily=Times New Roman;fontSize=10;" parent="8" vertex="1">
                    <mxGeometry y="90" width="230" height="30" as="geometry"/>
                </mxCell>
                <mxCell id="15" value="&lt;u&gt;&lt;font style=&quot;font-size: 12px;&quot;&gt;-DB PORT:String&lt;br&gt;&lt;/font&gt;&lt;br&gt;&lt;/u&gt;" style="text;strokeColor=none;fillColor=none;align=left;verticalAlign=middle;spacingLeft=4;spacingRight=4;overflow=hidden;points=[[0,0.5],[1,0.5]];portConstraint=eastwest;rotatable=0;whiteSpace=wrap;html=1;fontFamily=Times New Roman;fontSize=10;" parent="8" vertex="1">
                    <mxGeometry y="120" width="230" height="30" as="geometry"/>
                </mxCell>
                <mxCell id="14" value="&lt;u&gt;&lt;font style=&quot;font-size: 12px;&quot;&gt;-HOST :String&lt;br&gt;&lt;/font&gt;&lt;br&gt;&lt;/u&gt;" style="text;strokeColor=none;fillColor=none;align=left;verticalAlign=middle;spacingLeft=4;spacingRight=4;overflow=hidden;points=[[0,0.5],[1,0.5]];portConstraint=eastwest;rotatable=0;whiteSpace=wrap;html=1;fontFamily=Times New Roman;fontSize=10;" parent="8" vertex="1">
                    <mxGeometry y="150" width="230" height="30" as="geometry"/>
                </mxCell>
                <mxCell id="18" value="&lt;u&gt;&lt;font style=&quot;font-size: 12px;&quot;&gt;-conexion :connection&lt;/font&gt;&lt;br&gt;&lt;/u&gt;" style="text;strokeColor=none;fillColor=none;align=left;verticalAlign=middle;spacingLeft=4;spacingRight=4;overflow=hidden;points=[[0,0.5],[1,0.5]];portConstraint=eastwest;rotatable=0;whiteSpace=wrap;html=1;fontFamily=Times New Roman;fontSize=10;" parent="8" vertex="1">
                    <mxGeometry y="180" width="230" height="30" as="geometry"/>
                </mxCell>
                <mxCell id="19" value="&lt;u&gt;&lt;font style=&quot;font-size: 12px;&quot;&gt;-cursor:Cursor&lt;/font&gt;&lt;br&gt;&lt;/u&gt;" style="text;strokeColor=none;fillColor=none;align=left;verticalAlign=middle;spacingLeft=4;spacingRight=4;overflow=hidden;points=[[0,0.5],[1,0.5]];portConstraint=eastwest;rotatable=0;whiteSpace=wrap;html=1;fontFamily=Times New Roman;fontSize=10;" parent="8" vertex="1">
                    <mxGeometry y="210" width="230" height="30" as="geometry"/>
                </mxCell>
                <mxCell id="33" value="" style="swimlane;startSize=0;fontFamily=Times New Roman;fontSize=12;" parent="8" vertex="1">
                    <mxGeometry y="240" width="230" height="80" as="geometry"/>
                </mxCell>
                <mxCell id="29" value="" style="edgeStyle=none;html=1;fontFamily=Times New Roman;fontSize=12;" parent="1" source="26" target="19" edge="1">
                    <mxGeometry relative="1" as="geometry"/>
                </mxCell>
                <mxCell id="84" value="" style="edgeStyle=none;html=1;" edge="1" parent="1" source="26" target="19">
                    <mxGeometry relative="1" as="geometry"/>
                </mxCell>
                <mxCell id="85" value="" style="edgeStyle=none;html=1;" edge="1" parent="1" source="26" target="19">
                    <mxGeometry relative="1" as="geometry"/>
                </mxCell>
                <mxCell id="86" value="" style="edgeStyle=none;html=1;" edge="1" parent="1" source="26" target="19">
                    <mxGeometry relative="1" as="geometry"/>
                </mxCell>
                <mxCell id="87" value="" style="edgeStyle=none;html=1;" edge="1" parent="1" source="26" target="19">
                    <mxGeometry relative="1" as="geometry"/>
                </mxCell>
                <mxCell id="88" value="" style="edgeStyle=none;html=1;" edge="1" parent="1" source="26" target="19">
                    <mxGeometry relative="1" as="geometry"/>
                </mxCell>
                <mxCell id="89" value="" style="edgeStyle=none;html=1;" edge="1" parent="1" source="26" target="19">
                    <mxGeometry relative="1" as="geometry"/>
                </mxCell>
                <mxCell id="90" value="" style="edgeStyle=none;html=1;" edge="1" parent="1" source="26" target="19">
                    <mxGeometry relative="1" as="geometry"/>
                </mxCell>
                <mxCell id="91" value="" style="edgeStyle=none;html=1;" edge="1" parent="1" source="26" target="19">
                    <mxGeometry relative="1" as="geometry"/>
                </mxCell>
                <mxCell id="26" value="&lt;u style=&quot;border-color: var(--border-color); font-size: 12px;&quot;&gt;+obtenerConexion(cls):Connection&lt;/u&gt;" style="text;html=1;strokeColor=none;fillColor=none;align=center;verticalAlign=middle;whiteSpace=wrap;rounded=0;fontFamily=Times New Roman;fontSize=10;" parent="1" vertex="1">
                    <mxGeometry x="60" y="260" width="140" height="50" as="geometry"/>
                </mxCell>
                <mxCell id="27" value="&lt;u style=&quot;border-color: var(--border-color); font-size: 12px;&quot;&gt;+obtenerCursor(cls):Cursor&lt;/u&gt;" style="text;html=1;strokeColor=none;fillColor=none;align=center;verticalAlign=middle;whiteSpace=wrap;rounded=0;fontFamily=Times New Roman;fontSize=10;" parent="1" vertex="1">
                    <mxGeometry x="40" y="280" width="140" height="50" as="geometry"/>
                </mxCell>
                <mxCell id="28" value="&lt;u style=&quot;border-color: var(--border-color); font-size: 12px;&quot;&gt;+cerrar(cls)&lt;/u&gt;" style="text;html=1;strokeColor=none;fillColor=none;align=center;verticalAlign=middle;whiteSpace=wrap;rounded=0;fontFamily=Times New Roman;fontSize=10;" parent="1" vertex="1">
                    <mxGeometry y="300" width="140" height="50" as="geometry"/>
                </mxCell>
                <mxCell id="35" value="" style="rounded=0;whiteSpace=wrap;html=1;fontFamily=Times New Roman;fontSize=12;" parent="1" vertex="1">
                    <mxGeometry x="40" y="340" width="230" height="60" as="geometry"/>
                </mxCell>
                <mxCell id="36" value="Responsabilidades:&lt;br&gt;Administrar la conexiÃ³n a la base de datos&amp;nbsp;&amp;nbsp;" style="text;html=1;strokeColor=none;fillColor=none;align=center;verticalAlign=middle;whiteSpace=wrap;rounded=0;fontFamily=Times New Roman;fontSize=12;" parent="1" vertex="1">
                    <mxGeometry x="40" y="340" width="230" height="60" as="geometry"/>
                </mxCell>
                <mxCell id="37" value="PersonaDao&amp;nbsp;" style="swimlane;fontStyle=0;childLayout=stackLayout;horizontal=1;startSize=30;horizontalStack=0;resizeParent=1;resizeParentMax=0;resizeLast=0;collapsible=1;marginBottom=0;whiteSpace=wrap;html=1;fontFamily=Times New Roman;fontSize=10;" parent="1" vertex="1">
                    <mxGeometry x="410" y="400" width="240" height="210" as="geometry"/>
                </mxCell>
                <mxCell id="38" value="&lt;u&gt;&lt;font style=&quot;font-size: 12px;&quot;&gt;-SELECCIONAR:String&lt;/font&gt;&lt;/u&gt;" style="text;strokeColor=none;fillColor=none;align=left;verticalAlign=middle;spacingLeft=4;spacingRight=4;overflow=hidden;points=[[0,0.5],[1,0.5]];portConstraint=eastwest;rotatable=0;whiteSpace=wrap;html=1;fontFamily=Times New Roman;fontSize=10;" parent="37" vertex="1">
                    <mxGeometry y="30" width="240" height="30" as="geometry"/>
                </mxCell>
                <mxCell id="39" value="&lt;u&gt;&lt;font style=&quot;font-size: 12px;&quot;&gt;-INSERTAR:String&amp;nbsp;&lt;/font&gt;&lt;/u&gt;" style="text;strokeColor=none;fillColor=none;align=left;verticalAlign=middle;spacingLeft=4;spacingRight=4;overflow=hidden;points=[[0,0.5],[1,0.5]];portConstraint=eastwest;rotatable=0;whiteSpace=wrap;html=1;fontFamily=Times New Roman;fontSize=10;" parent="37" vertex="1">
                    <mxGeometry y="60" width="240" height="30" as="geometry"/>
                </mxCell>
                <mxCell id="40" value="&lt;u&gt;&lt;font style=&quot;font-size: 12px;&quot;&gt;-ACTUALIZAR:String&lt;/font&gt;&lt;br&gt;&lt;/u&gt;" style="text;strokeColor=none;fillColor=none;align=left;verticalAlign=middle;spacingLeft=4;spacingRight=4;overflow=hidden;points=[[0,0.5],[1,0.5]];portConstraint=eastwest;rotatable=0;whiteSpace=wrap;html=1;fontFamily=Times New Roman;fontSize=10;" parent="37" vertex="1">
                    <mxGeometry y="90" width="240" height="30" as="geometry"/>
                </mxCell>
                <mxCell id="41" value="&lt;u&gt;&lt;font style=&quot;font-size: 12px;&quot;&gt;-ELIMINAR:String&lt;br&gt;&lt;/font&gt;&lt;br&gt;&lt;/u&gt;" style="text;strokeColor=none;fillColor=none;align=left;verticalAlign=middle;spacingLeft=4;spacingRight=4;overflow=hidden;points=[[0,0.5],[1,0.5]];portConstraint=eastwest;rotatable=0;whiteSpace=wrap;html=1;fontFamily=Times New Roman;fontSize=10;" parent="37" vertex="1">
                    <mxGeometry y="120" width="240" height="20" as="geometry"/>
                </mxCell>
                <mxCell id="45" value="" style="swimlane;startSize=0;fontFamily=Times New Roman;fontSize=12;" parent="37" vertex="1">
                    <mxGeometry y="140" width="240" height="70" as="geometry"/>
                </mxCell>
                <mxCell id="63" value="+seleccionar(cls)&lt;br&gt;+insertar(cls,persona)&lt;br&gt;+actualizar(cls,persona)&lt;br&gt;+eliminar(cls,persona)" style="text;html=1;strokeColor=none;fillColor=none;align=center;verticalAlign=middle;whiteSpace=wrap;rounded=0;" parent="45" vertex="1">
                    <mxGeometry x="-50" y="-10" width="240" height="90" as="geometry"/>
                </mxCell>
                <mxCell id="68" value="" style="swimlane;startSize=0;" parent="1" vertex="1">
                    <mxGeometry x="410" y="610" width="240" height="70" as="geometry"/>
                </mxCell>
                <mxCell id="69" value="Responsabilidades:&lt;br&gt;Realizar las operaciones sobre la base de datos de la entidad persona&amp;nbsp;" style="text;html=1;strokeColor=none;fillColor=none;align=center;verticalAlign=middle;whiteSpace=wrap;rounded=0;" parent="68" vertex="1">
                    <mxGeometry x="15" y="20" width="190" height="30" as="geometry"/>
                </mxCell>
                <mxCell id="70" value="Persona&amp;nbsp;" style="swimlane;fontStyle=0;childLayout=stackLayout;horizontal=1;startSize=30;horizontalStack=0;resizeParent=1;resizeParentMax=0;resizeLast=0;collapsible=1;marginBottom=0;whiteSpace=wrap;html=1;fontFamily=Times New Roman;fontSize=10;" parent="1" vertex="1">
                    <mxGeometry x="410" y="20" width="240" height="210" as="geometry"/>
                </mxCell>
                <mxCell id="71" value="&lt;u&gt;&lt;font style=&quot;font-size: 12px;&quot;&gt;-id_persona:int&lt;/font&gt;&lt;/u&gt;" style="text;strokeColor=none;fillColor=none;align=left;verticalAlign=middle;spacingLeft=4;spacingRight=4;overflow=hidden;points=[[0,0.5],[1,0.5]];portConstraint=eastwest;rotatable=0;whiteSpace=wrap;html=1;fontFamily=Times New Roman;fontSize=10;" parent="70" vertex="1">
                    <mxGeometry y="30" width="240" height="30" as="geometry"/>
                </mxCell>
                <mxCell id="72" value="&lt;u&gt;&lt;font style=&quot;font-size: 12px;&quot;&gt;-nombre:String&amp;nbsp;&lt;/font&gt;&lt;/u&gt;" style="text;strokeColor=none;fillColor=none;align=left;verticalAlign=middle;spacingLeft=4;spacingRight=4;overflow=hidden;points=[[0,0.5],[1,0.5]];portConstraint=eastwest;rotatable=0;whiteSpace=wrap;html=1;fontFamily=Times New Roman;fontSize=10;" parent="70" vertex="1">
                    <mxGeometry y="60" width="240" height="30" as="geometry"/>
                </mxCell>
                <mxCell id="73" value="&lt;u&gt;&lt;font style=&quot;font-size: 12px;&quot;&gt;-apellido:String&lt;/font&gt;&lt;br&gt;&lt;/u&gt;" style="text;strokeColor=none;fillColor=none;align=left;verticalAlign=middle;spacingLeft=4;spacingRight=4;overflow=hidden;points=[[0,0.5],[1,0.5]];portConstraint=eastwest;rotatable=0;whiteSpace=wrap;html=1;fontFamily=Times New Roman;fontSize=10;" parent="70" vertex="1">
                    <mxGeometry y="90" width="240" height="30" as="geometry"/>
                </mxCell>
                <mxCell id="74" value="&lt;u&gt;&lt;font style=&quot;font-size: 12px;&quot;&gt;-email:String&lt;br&gt;&lt;/font&gt;&lt;br&gt;&lt;/u&gt;" style="text;strokeColor=none;fillColor=none;align=left;verticalAlign=middle;spacingLeft=4;spacingRight=4;overflow=hidden;points=[[0,0.5],[1,0.5]];portConstraint=eastwest;rotatable=0;whiteSpace=wrap;html=1;fontFamily=Times New Roman;fontSize=10;" parent="70" vertex="1">
                    <mxGeometry y="120" width="240" height="20" as="geometry"/>
                </mxCell>
                <mxCell id="75" value="" style="swimlane;startSize=0;fontFamily=Times New Roman;fontSize=12;" parent="70" vertex="1">
                    <mxGeometry y="140" width="240" height="70" as="geometry"/>
                </mxCell>
                <mxCell id="76" value="+_str_():String&lt;br&gt;+metodo Get/Set de cada atributo&amp;nbsp;" style="text;html=1;strokeColor=none;fillColor=none;align=center;verticalAlign=middle;whiteSpace=wrap;rounded=0;" parent="75" vertex="1">
                    <mxGeometry x="-20" y="-10" width="240" height="90" as="geometry"/>
                </mxCell>
                <mxCell id="77" value="" style="swimlane;startSize=0;" parent="1" vertex="1">
                    <mxGeometry x="410" y="230" width="240" height="80" as="geometry"/>
                </mxCell>
                <mxCell id="78" value="Responsabilidades:&lt;br&gt;Crear objetos de la entidad persona" style="text;html=1;strokeColor=none;fillColor=none;align=center;verticalAlign=middle;whiteSpace=wrap;rounded=0;" parent="77" vertex="1">
                    <mxGeometry x="-10" y="20" width="180" height="30" as="geometry"/>
                </mxCell>
                <mxCell id="79" value="" style="endArrow=classic;html=1;entryX=0;entryY=0.667;entryDx=0;entryDy=0;entryPerimeter=0;" parent="1" target="40" edge="1">
                    <mxGeometry width="50" height="50" relative="1" as="geometry">
                        <mxPoint x="160" y="510" as="sourcePoint"/>
                        <mxPoint x="400" y="380" as="targetPoint"/>
                    </mxGeometry>
                </mxCell>
                <mxCell id="82" value="" style="endArrow=none;html=1;" parent="1" edge="1">
                    <mxGeometry width="50" height="50" relative="1" as="geometry">
                        <mxPoint x="160" y="510" as="sourcePoint"/>
                        <mxPoint x="160" y="400" as="targetPoint"/>
                    </mxGeometry>
                </mxCell>
                <mxCell id="83" value="" style="endArrow=classic;html=1;entryX=0.385;entryY=-0.003;entryDx=0;entryDy=0;entryPerimeter=0;exitX=0.383;exitY=1.031;exitDx=0;exitDy=0;exitPerimeter=0;" parent="1" source="77" target="37" edge="1">
                    <mxGeometry width="50" height="50" relative="1" as="geometry">
                        <mxPoint x="380" y="430" as="sourcePoint"/>
                        <mxPoint x="430" y="380" as="targetPoint"/>
                    </mxGeometry>
                </mxCell>
            </root>
        </mxGraphModel>
    </diagram>
</mxfile>